<svg width="135" height="44" viewBox="0 0 135 44" fill="none" xmlns="http://www.w3.org/2000/svg">
<rect width="135" height="44" rx="20.5" fill="#E4EDFF"/>
<path d="M38.316 32H34.676L26.434 19.546V32H22.794V13.826H26.434L34.676 26.306V13.826H38.316V32ZM55.5111 17.596V32H51.8451V30.18C51.3771 30.804 50.7618 31.298 49.9991 31.662C49.2538 32.0087 48.4391 32.182 47.5551 32.182C46.4285 32.182 45.4318 31.948 44.5651 31.48C43.6985 30.9947 43.0138 30.2927 42.5111 29.374C42.0258 28.438 41.7831 27.3287 41.7831 26.046V17.596H45.4231V25.526C45.4231 26.67 45.7091 27.554 46.2811 28.178C46.8531 28.7847 47.6331 29.088 48.6211 29.088C49.6265 29.088 50.4151 28.7847 50.9871 28.178C51.5591 27.554 51.8451 26.67 51.8451 25.526V17.596H55.5111ZM62.7426 19.832C63.2106 19.0693 63.8173 18.4713 64.5626 18.038C65.3253 17.6047 66.1919 17.388 67.1626 17.388V21.21H66.2006C65.0566 21.21 64.1899 21.4787 63.6006 22.016C63.0286 22.5533 62.7426 23.4893 62.7426 24.824V32H59.1026V17.596H62.7426V19.832ZM75.1263 32.234C73.9476 32.234 72.8903 32.026 71.9543 31.61C71.0183 31.1767 70.273 30.596 69.7183 29.868C69.181 29.14 68.8863 28.334 68.8343 27.45H72.5003C72.5696 28.0047 72.8383 28.464 73.3063 28.828C73.7916 29.192 74.3896 29.374 75.1003 29.374C75.7936 29.374 76.331 29.2353 76.7123 28.958C77.111 28.6807 77.3103 28.3253 77.3103 27.892C77.3103 27.424 77.0676 27.0773 76.5823 26.852C76.1143 26.6093 75.3603 26.3493 74.3203 26.072C73.2456 25.812 72.3616 25.5433 71.6683 25.266C70.9923 24.9887 70.403 24.564 69.9003 23.992C69.415 23.42 69.1723 22.6487 69.1723 21.678C69.1723 20.8807 69.3976 20.1527 69.8483 19.494C70.3163 18.8353 70.975 18.3153 71.8243 17.934C72.691 17.5527 73.705 17.362 74.8663 17.362C76.5823 17.362 77.9516 17.7953 78.9743 18.662C79.997 19.5113 80.5603 20.664 80.6643 22.12H77.1803C77.1283 21.548 76.8856 21.0973 76.4523 20.768C76.0363 20.4213 75.473 20.248 74.7623 20.248C74.1036 20.248 73.5923 20.3693 73.2283 20.612C72.8816 20.8547 72.7083 21.1927 72.7083 21.626C72.7083 22.1113 72.951 22.484 73.4363 22.744C73.9216 22.9867 74.6756 23.238 75.6983 23.498C76.7383 23.758 77.5963 24.0267 78.2723 24.304C78.9483 24.5813 79.529 25.0147 80.0143 25.604C80.517 26.176 80.777 26.9387 80.7943 27.892C80.7943 28.724 80.5603 29.4693 80.0923 30.128C79.6416 30.7867 78.983 31.3067 78.1163 31.688C77.267 32.052 76.2703 32.234 75.1263 32.234ZM85.6283 15.88C84.9869 15.88 84.4496 15.6807 84.0163 15.282C83.6003 14.866 83.3923 14.3547 83.3923 13.748C83.3923 13.1413 83.6003 12.6387 84.0163 12.24C84.4496 11.824 84.9869 11.616 85.6283 11.616C86.2696 11.616 86.7983 11.824 87.2143 12.24C87.6476 12.6387 87.8643 13.1413 87.8643 13.748C87.8643 14.3547 87.6476 14.866 87.2143 15.282C86.7983 15.6807 86.2696 15.88 85.6283 15.88ZM87.4223 17.596V32H83.7823V17.596H87.4223ZM99.0006 17.388C100.717 17.388 102.103 17.934 103.161 19.026C104.218 20.1007 104.747 21.6087 104.747 23.55V32H101.107V24.044C101.107 22.9 100.821 22.0247 100.249 21.418C99.6766 20.794 98.8966 20.482 97.9086 20.482C96.9033 20.482 96.1059 20.794 95.5166 21.418C94.9446 22.0247 94.6586 22.9 94.6586 24.044V32H91.0186V17.596H94.6586V19.39C95.1439 18.766 95.7593 18.2807 96.5046 17.934C97.2673 17.57 98.0993 17.388 99.0006 17.388ZM110.054 15.88C109.413 15.88 108.875 15.6807 108.442 15.282C108.026 14.866 107.818 14.3547 107.818 13.748C107.818 13.1413 108.026 12.6387 108.442 12.24C108.875 11.824 109.413 11.616 110.054 11.616C110.695 11.616 111.224 11.824 111.64 12.24C112.073 12.6387 112.29 13.1413 112.29 13.748C112.29 14.3547 112.073 14.866 111.64 15.282C111.224 15.6807 110.695 15.88 110.054 15.88ZM111.848 17.596V32H108.208V17.596H111.848Z" fill="#0067FF"/>
</svg>
